<svg data-v-0dd9719b="" version="1.0" xmlns="http://www.w3.org/2000/svg" xmlns:xlink="http://www.w3.org/1999/xlink" width="100%" height="100%" viewBox="0 0 340.000000 250.000000" preserveAspectRatio="xMidYMid meet" color-interpolation-filters="sRGB" style="margin: auto;"> <rect data-v-0dd9719b="" x="0" y="0" width="100%" height="100%" fill="#ffffff" fill-opacity="1" class="background"></rect> <rect data-v-0dd9719b="" x="0" y="0" width="100%" height="100%" fill="url(#watermark)" fill-opacity="1" class="watermarklayer"></rect> <g data-v-0dd9719b="" fill="#c24822" class="icon-text-wrapper icon-svg-group iconsvg" transform="translate(95.33000195026398,64.64835357666016)"><g fill="#c24822" class="iconsvg-imagesvg icon_container" transform="translate(41.12999725341797,0)"><rect fill="#c24822" fill-opacity="0" stroke-width="2" x="0" y="0" width="67.07999999999998" height="67.07999999999998" class="image-rect"></rect> <svg viewBox="0 0 60 60.09675577680065" x="0" y="0" width="67.07999999999998" height="67.07999999999998" class="image-svg-svg bn" style="overflow: visible;"><g hollow-target="iconBnFill" mask="url(#f85df4bd-188a-47c2-88dc-1c901ab24f22)"><g><svg xmlns:x="http://ns.adobe.com/Extensibility/1.0/" xmlns:i="http://ns.adobe.com/AdobeIllustrator/10.0/" xmlns:graph="http://ns.adobe.com/Graphs/1.0/" xmlns="http://www.w3.org/2000/svg" xmlns:xlink="http://www.w3.org/1999/xlink" version="1.1" x="0" y="0" viewBox="4.96937 4.89669 90.06126 90.20661" style="overflow: visible;" xml:space="preserve" width="60" height="60.09675577680065" filtersec="colorsf5230328019" filter="url(#1DCgxUO56lbeUss32IxiQ)"><g transform="scale(1, 1) skewX(0)"><g><g i:extraneous="self"><path class="st0" d="M95,44c-0.4-2.6-3-4.6-3.8-7c-0.8-2.5,0.2-5.6-1-7.9c-1.2-2.3-4.4-3.3-6-5.3c-1.6-2-1.8-5.3-3.7-7.1    c-1.9-1.7-5.2-1.6-7.4-3c-2.2-1.4-3.5-4.4-5.9-5.4c-2.4-1-5.5,0.3-8-0.3c-2.5-0.5-4.8-3-7.4-3.1c-2.5-0.1-5,2.1-7.6,2.5    c-2.6,0.3-5.6-1.1-8-0.4c-2.5,0.8-4.1,3.7-6.3,4.9c-2.3,1.2-5.6,0.8-7.6,2.4c-2,1.6-2.5,4.9-4.2,6.7c-1.7,1.9-5,2.7-6.4,4.8    C10.3,28,11,31.3,10,33.7c-1,2.4-3.8,4.2-4.3,6.7c-0.5,2.5,1.2,5.3,1.1,7.9C6.7,50.7,4.7,53.4,5,56c0.4,2.6,3,4.6,3.8,7    c0.8,2.5-0.2,5.6,1,7.9c1.2,2.3,4.4,3.3,6,5.3c1.6,2,1.8,5.3,3.7,7.1c1.9,1.7,5.2,1.6,7.4,3c2.2,1.4,3.5,4.4,5.9,5.4    c2.4,1,5.5-0.3,8,0.3c2.5,0.5,4.8,3,7.4,3.1c2.5,0.1,5-2.1,7.6-2.5c2.6-0.3,5.6,1.1,8,0.4c2.5-0.8,4.1-3.7,6.3-4.9    c2.3-1.2,5.6-0.8,7.6-2.4c2-1.6,2.5-4.9,4.2-6.7c1.7-1.9,5-2.7,6.4-4.8c1.4-2.2,0.7-5.4,1.7-7.8c1-2.4,3.8-4.2,4.3-6.7    c0.5-2.5-1.2-5.3-1.1-7.9C93.3,49.3,95.3,46.6,95,44z"></path></g></g></g><defs><filter id="1DCgxUO56lbeUss32IxiQ"><feColorMatrix type="matrix" values="0 0 0 0 0.7578125  0 0 0 0 0.28125  0 0 0 0 0.1328125  0 0 0 1 0"></feColorMatrix></filter></defs></svg></g> <g filter="url(#colors4488618446)"><svg xmlns="http://www.w3.org/2000/svg" xmlns:xlink="http://www.w3.org/1999/xlink" viewBox="0 0 66.96000000000001 61.41600000000001" width="39.6" height="39.663855000000005" x="10.2" y="10.216450388400322" class="image-svg-letter"><path transform="translate(-2.5200000000000005 55.87200000000001)" d="M57.53-19.94L57.53-16.20L59.69-16.27Q59.90-17.06 59.90-20.02L59.90-20.02L57.53-19.94ZM46.80-30.74L46.80-27.94L49.97-28.01L49.90-30.82L46.80-30.74ZM57.46-30.96L57.46-28.37L60.05-28.44Q60.05-30.96 58.68-30.96L58.68-30.96L57.46-30.96ZM46.87-19.73L46.87-15.91L49.90-15.98L49.90-19.80L46.87-19.73ZM57.53-4.18L57.53 5.40L49.61 5.54L49.82-8.14L46.87-8.14L46.80 5.18L38.81 5.26L38.95-1.94Q37.15 1.66 34.27 4.46L34.27 4.46L29.09-2.09Q32.26-4.54 34.70-8.06L34.70-8.06L32.26-8.06L32.04-15.84L39.24-15.77L39.24-19.51L30.10-19.30L29.88-27.50Q34.92-27.50 39.31-27.72L39.31-27.72L39.24-30.60L32.76-30.46L32.54-38.30L39.24-38.52L39.24-41.54L30.38-41.26L30.10-49.75L38.16-49.82Q37.66-51.05 35.50-53.71L35.50-53.71L43.56-55.87Q46.01-53.64 47.16-50.90L47.16-50.90L45.07-50.04L51.26-50.26Q52.99-52.99 54.29-55.58L54.29-55.58L62.57-53.50Q61.92-51.84 60.77-50.47L60.77-50.47Q65.30-50.54 68.47-50.62L68.47-50.62L68.33-42.26Q62.64-42.12 57.31-41.98L57.31-41.98L57.31-38.88L58.46-38.88Q60.91-38.88 62.78-38.63Q64.66-38.38 65.77-36.90Q66.89-35.42 67.10-32.90L67.10-32.90Q67.39-31.32 67.39-28.58L67.39-28.58L69.19-28.66L69.48-20.38L67.18-20.23Q66.89-13.90 66.24-8.35L66.24-8.35L64.01-8.28Q66.38-3.53 68.98 1.87L68.98 1.87L61.34 5.11Q60.26 1.22 57.53-4.18L57.53-4.18ZM46.58-41.69L46.66-38.59L49.90-38.66L49.90-41.76L46.58-41.69ZM29.59-2.95L23.33 3.24Q20.66-1.15 16.85-5.11L16.85-5.11L21.31-12.24Q26.86-7.56 29.59-2.95L29.59-2.95ZM9.29 5.54L9.29 5.54L2.52-0.07Q8.21-5.26 11.02-14.33L11.02-14.33L4.10-14.26Q4.46-23.18 4.46-33.98L4.46-33.98L4.32-55.44L11.38-55.80L11.38-54.50Q16.92-54.94 24.48-54.94L24.48-54.94Q28.51-54.58 28.87-49.82L28.87-49.82Q29.02-39.02 29.02-32.90L29.02-32.90Q29.02-22.90 28.58-13.68L28.58-13.68L21.24-14.40Q21.96-26.35 21.96-35.50L21.96-35.50Q21.96-38.81 21.82-43.49L21.82-43.49Q21.67-45.14 20.30-45.14L20.30-45.14Q18.65-45.14 11.45-44.57L11.45-44.57Q11.52-30.60 11.52-16.06L11.52-16.06Q13.75-24.19 13.75-33.70L13.75-33.70L13.61-41.11L20.16-41.47L20.16-39.96Q20.45-35.93 20.45-33.55L20.45-33.55Q20.45-4.61 9.29 5.54Z"></path></svg></g></g><mask id="f85df4bd-188a-47c2-88dc-1c901ab24f22"><g fill="white"><svg xmlns:x="http://ns.adobe.com/Extensibility/1.0/" xmlns:i="http://ns.adobe.com/AdobeIllustrator/10.0/" xmlns:graph="http://ns.adobe.com/Graphs/1.0/" xmlns="http://www.w3.org/2000/svg" xmlns:xlink="http://www.w3.org/1999/xlink" version="1.1" x="0" y="0" viewBox="4.96937 4.89669 90.06126 90.20661" style="overflow: visible;" xml:space="preserve" width="60" height="60.09675577680065" filtersec="colorsf5230328019"><g transform="scale(1, 1) skewX(0)"><g><g i:extraneous="self"><path d="M95,44c-0.4-2.6-3-4.6-3.8-7c-0.8-2.5,0.2-5.6-1-7.9c-1.2-2.3-4.4-3.3-6-5.3c-1.6-2-1.8-5.3-3.7-7.1    c-1.9-1.7-5.2-1.6-7.4-3c-2.2-1.4-3.5-4.4-5.9-5.4c-2.4-1-5.5,0.3-8-0.3c-2.5-0.5-4.8-3-7.4-3.1c-2.5-0.1-5,2.1-7.6,2.5    c-2.6,0.3-5.6-1.1-8-0.4c-2.5,0.8-4.1,3.7-6.3,4.9c-2.3,1.2-5.6,0.8-7.6,2.4c-2,1.6-2.5,4.9-4.2,6.7c-1.7,1.9-5,2.7-6.4,4.8    C10.3,28,11,31.3,10,33.7c-1,2.4-3.8,4.2-4.3,6.7c-0.5,2.5,1.2,5.3,1.1,7.9C6.7,50.7,4.7,53.4,5,56c0.4,2.6,3,4.6,3.8,7    c0.8,2.5-0.2,5.6,1,7.9c1.2,2.3,4.4,3.3,6,5.3c1.6,2,1.8,5.3,3.7,7.1c1.9,1.7,5.2,1.6,7.4,3c2.2,1.4,3.5,4.4,5.9,5.4    c2.4,1,5.5-0.3,8,0.3c2.5,0.5,4.8,3,7.4,3.1c2.5,0.1,5-2.1,7.6-2.5c2.6-0.3,5.6,1.1,8,0.4c2.5-0.8,4.1-3.7,6.3-4.9    c2.3-1.2,5.6-0.8,7.6-2.4c2-1.6,2.5-4.9,4.2-6.7c1.7-1.9,5-2.7,6.4-4.8c1.4-2.2,0.7-5.4,1.7-7.8c1-2.4,3.8-4.2,4.3-6.7    c0.5-2.5-1.2-5.3-1.1-7.9C93.3,49.3,95.3,46.6,95,44z"></path></g></g></g><defs></defs></svg></g> <g fill="black"><svg xmlns="http://www.w3.org/2000/svg" xmlns:xlink="http://www.w3.org/1999/xlink" viewBox="0 0 66.96000000000001 61.41600000000001" width="39.6" height="39.663855000000005" x="10.2" y="10.216450388400322" class="image-svg-letter"><path transform="translate(-2.5200000000000005 55.87200000000001)" d="M57.53-19.94L57.53-16.20L59.69-16.27Q59.90-17.06 59.90-20.02L59.90-20.02L57.53-19.94ZM46.80-30.74L46.80-27.94L49.97-28.01L49.90-30.82L46.80-30.74ZM57.46-30.96L57.46-28.37L60.05-28.44Q60.05-30.96 58.68-30.96L58.68-30.96L57.46-30.96ZM46.87-19.73L46.87-15.91L49.90-15.98L49.90-19.80L46.87-19.73ZM57.53-4.18L57.53 5.40L49.61 5.54L49.82-8.14L46.87-8.14L46.80 5.18L38.81 5.26L38.95-1.94Q37.15 1.66 34.27 4.46L34.27 4.46L29.09-2.09Q32.26-4.54 34.70-8.06L34.70-8.06L32.26-8.06L32.04-15.84L39.24-15.77L39.24-19.51L30.10-19.30L29.88-27.50Q34.92-27.50 39.31-27.72L39.31-27.72L39.24-30.60L32.76-30.46L32.54-38.30L39.24-38.52L39.24-41.54L30.38-41.26L30.10-49.75L38.16-49.82Q37.66-51.05 35.50-53.71L35.50-53.71L43.56-55.87Q46.01-53.64 47.16-50.90L47.16-50.90L45.07-50.04L51.26-50.26Q52.99-52.99 54.29-55.58L54.29-55.58L62.57-53.50Q61.92-51.84 60.77-50.47L60.77-50.47Q65.30-50.54 68.47-50.62L68.47-50.62L68.33-42.26Q62.64-42.12 57.31-41.98L57.31-41.98L57.31-38.88L58.46-38.88Q60.91-38.88 62.78-38.63Q64.66-38.38 65.77-36.90Q66.89-35.42 67.10-32.90L67.10-32.90Q67.39-31.32 67.39-28.58L67.39-28.58L69.19-28.66L69.48-20.38L67.18-20.23Q66.89-13.90 66.24-8.35L66.24-8.35L64.01-8.28Q66.38-3.53 68.98 1.87L68.98 1.87L61.34 5.11Q60.26 1.22 57.53-4.18L57.53-4.18ZM46.58-41.69L46.66-38.59L49.90-38.66L49.90-41.76L46.58-41.69ZM29.59-2.95L23.33 3.24Q20.66-1.15 16.85-5.11L16.85-5.11L21.31-12.24Q26.86-7.56 29.59-2.95L29.59-2.95ZM9.29 5.54L9.29 5.54L2.52-0.07Q8.21-5.26 11.02-14.33L11.02-14.33L4.10-14.26Q4.46-23.18 4.46-33.98L4.46-33.98L4.32-55.44L11.38-55.80L11.38-54.50Q16.92-54.94 24.48-54.94L24.48-54.94Q28.51-54.58 28.87-49.82L28.87-49.82Q29.02-39.02 29.02-32.90L29.02-32.90Q29.02-22.90 28.58-13.68L28.58-13.68L21.24-14.40Q21.96-26.35 21.96-35.50L21.96-35.50Q21.96-38.81 21.82-43.49L21.82-43.49Q21.67-45.14 20.30-45.14L20.30-45.14Q18.65-45.14 11.45-44.57L11.45-44.57Q11.52-30.60 11.52-16.06L11.52-16.06Q13.75-24.19 13.75-33.70L13.75-33.70L13.61-41.11L20.16-41.47L20.16-39.96Q20.45-35.93 20.45-33.55L20.45-33.55Q20.45-4.61 9.29 5.54Z"></path></svg></g></mask></svg> <defs><filter id="colors4488618446"><feColorMatrix type="matrix" values="0 0 0 0 0.7578125  0 0 0 0 0.28125  0 0 0 0 0.1328125  0 0 0 1 0" class="icon-fecolormatrix"></feColorMatrix></filter> <filter id="colorsf5230328019"><feColorMatrix type="matrix" values="0 0 0 0 0.99609375  0 0 0 0 0.99609375  0 0 0 0 0.99609375  0 0 0 1 0" class="icon-fecolormatrix"></feColorMatrix></filter> <filter id="colorsb3268725446"><feColorMatrix type="matrix" values="0 0 0 0 0  0 0 0 0 0  0 0 0 0 0  0 0 0 1 0" class="icon-fecolormatrix"></feColorMatrix></filter></defs></g> <g transform="translate(0,74.08000946044922)"><g data-gra="path-name" fill-rule="" class="tp-name iconsvg-namesvg" transform="translate(0,0)"><g transform="scale(1)"><g><path d="M30.36-10.53L30.36-8.55 31.5-8.59Q31.62-9.01 31.62-10.56L31.62-10.56 30.36-10.53ZM24.7-16.23L24.7-14.74 26.37-14.78 26.33-16.26 24.7-16.23ZM30.32-16.34L30.32-14.97 31.69-15.01Q31.69-16.34 30.97-16.34L30.97-16.34 30.32-16.34ZM24.74-10.41L24.74-8.4 26.33-8.44 26.33-10.45 24.74-10.41ZM30.36-2.2L30.36 2.85 26.18 2.93 26.3-4.29 24.74-4.29 24.7 2.74 20.48 2.77 20.56-1.03Q19.61 0.87 18.09 2.36L18.09 2.36 15.35-1.1Q17.02-2.39 18.32-4.26L18.32-4.26 17.02-4.26 16.91-8.36 20.71-8.32 20.71-10.3 15.88-10.18 15.77-14.52Q18.43-14.52 20.75-14.63L20.75-14.63 20.71-16.15 17.29-16.07 17.18-20.22 20.71-20.33 20.71-21.93 16.04-21.77 15.88-26.26 20.14-26.3Q19.87-26.94 18.73-28.35L18.73-28.35 22.99-29.49Q24.28-28.31 24.89-26.87L24.89-26.87 23.79-26.41 27.06-26.52Q27.97-27.97 28.65-29.34L28.65-29.34 33.02-28.23Q32.68-27.36 32.07-26.64L32.07-26.64Q34.47-26.68 36.14-26.71L36.14-26.71 36.06-22.31Q33.06-22.23 30.25-22.15L30.25-22.15 30.25-20.52 30.86-20.52Q32.15-20.52 33.14-20.39 34.12-20.25 34.71-19.47 35.3-18.7 35.42-17.37L35.42-17.37Q35.57-16.53 35.57-15.09L35.57-15.09 36.52-15.12 36.67-10.75 35.45-10.68Q35.3-7.33 34.96-4.41L34.96-4.41 33.78-4.37Q35.04-1.86 36.4 0.99L36.4 0.99 32.38 2.7Q31.81 0.65 30.36-2.2L30.36-2.2ZM24.59-22L24.62-20.37 26.33-20.41 26.33-22.04 24.59-22ZM15.62-1.56L12.31 1.71Q10.91-0.61 8.89-2.7L8.89-2.7 11.25-6.46Q14.17-3.99 15.62-1.56L15.62-1.56ZM4.9 2.93L4.9 2.93 1.33-0.04Q4.33-2.77 5.81-7.56L5.81-7.56 2.17-7.52Q2.36-12.24 2.36-17.94L2.36-17.94 2.28-29.26 6-29.45 6-28.77Q8.93-28.99 12.92-28.99L12.92-28.99Q15.05-28.8 15.24-26.3L15.24-26.3Q15.31-20.6 15.31-17.37L15.31-17.37Q15.31-12.08 15.09-7.22L15.09-7.22 11.21-7.6Q11.59-13.91 11.59-18.73L11.59-18.73Q11.59-20.48 11.51-22.95L11.51-22.95Q11.44-23.83 10.72-23.83L10.72-23.83Q9.84-23.83 6.04-23.52L6.04-23.52Q6.08-16.15 6.08-8.47L6.08-8.47Q7.26-12.77 7.26-17.78L7.26-17.78 7.18-21.7 10.64-21.89 10.64-21.09Q10.79-18.96 10.79-17.71L10.79-17.71Q10.79-2.43 4.9 2.93ZM68.36-10.53L68.36-8.55 69.5-8.59Q69.62-9.01 69.62-10.56L69.62-10.56 68.36-10.53ZM62.7-16.23L62.7-14.74 64.37-14.78 64.33-16.26 62.7-16.23ZM68.32-16.34L68.32-14.97 69.69-15.01Q69.69-16.34 68.97-16.34L68.97-16.34 68.32-16.34ZM62.74-10.41L62.74-8.4 64.33-8.44 64.33-10.45 62.74-10.41ZM68.36-2.2L68.36 2.85 64.18 2.93 64.3-4.29 62.74-4.29 62.7 2.74 58.48 2.77 58.56-1.03Q57.61 0.87 56.09 2.36L56.09 2.36 53.35-1.1Q55.02-2.39 56.32-4.26L56.32-4.26 55.02-4.26 54.91-8.36 58.71-8.32 58.71-10.3 53.88-10.18 53.77-14.52Q56.43-14.52 58.75-14.63L58.75-14.63 58.71-16.15 55.29-16.07 55.18-20.22 58.71-20.33 58.71-21.93 54.04-21.77 53.88-26.26 58.14-26.3Q57.87-26.94 56.73-28.35L56.73-28.35 60.99-29.49Q62.28-28.31 62.89-26.87L62.89-26.87 61.79-26.41 65.06-26.52Q65.97-27.97 66.65-29.34L66.65-29.34 71.02-28.23Q70.68-27.36 70.07-26.64L70.07-26.64Q72.47-26.68 74.14-26.71L74.14-26.71 74.06-22.31Q71.06-22.23 68.25-22.15L68.25-22.15 68.25-20.52 68.86-20.52Q70.15-20.52 71.14-20.39 72.12-20.25 72.71-19.47 73.3-18.7 73.42-17.37L73.42-17.37Q73.57-16.53 73.57-15.09L73.57-15.09 74.52-15.12 74.67-10.75 73.45-10.68Q73.3-7.33 72.96-4.41L72.96-4.41 71.78-4.37Q73.04-1.86 74.4 0.99L74.4 0.99 70.38 2.7Q69.81 0.65 68.36-2.2L68.36-2.2ZM62.59-22L62.62-20.37 64.33-20.41 64.33-22.04 62.59-22ZM53.62-1.56L50.31 1.71Q48.91-0.61 46.89-2.7L46.89-2.7 49.25-6.46Q52.17-3.99 53.62-1.56L53.62-1.56ZM42.9 2.93L42.9 2.93 39.33-0.04Q42.33-2.77 43.81-7.56L43.81-7.56 40.17-7.52Q40.36-12.24 40.36-17.94L40.36-17.94 40.28-29.26 44-29.45 44-28.77Q46.93-28.99 50.92-28.99L50.92-28.99Q53.05-28.8 53.24-26.3L53.24-26.3Q53.31-20.6 53.31-17.37L53.31-17.37Q53.31-12.08 53.09-7.22L53.09-7.22 49.21-7.6Q49.59-13.91 49.59-18.73L49.59-18.73Q49.59-20.48 49.51-22.95L49.51-22.95Q49.44-23.83 48.72-23.83L48.72-23.83Q47.84-23.83 44.04-23.52L44.04-23.52Q44.08-16.15 44.08-8.47L44.08-8.47Q45.26-12.77 45.26-17.78L45.26-17.78 45.18-21.7 48.64-21.89 48.64-21.09Q48.79-18.96 48.79-17.71L48.79-17.71Q48.79-2.43 42.9 2.93ZM87.25-24.78L87.29-23.29 103.85-23.48Q103.66-24.51 101.56-24.74 99.45-24.97 95.3-24.97L95.3-24.97Q92.07-24.97 87.25-24.78L87.25-24.78ZM93.02-6.8L93.06-8.44Q88.62-8.32 85.65-8.25L85.65-8.25Q85.2-7.3 84.82-6.65L84.82-6.65Q88.62-6.69 93.02-6.8L93.02-6.8ZM87.29-19.76L87.32-17.94Q91.2-17.94 103.63-18.09L103.63-18.09 103.82-19.91 87.29-19.76ZM82.35-13.95L82.35-13.95 82.12-13.95 82.16-17.4Q82.16-23.03 81.66-28.58L81.66-28.58 87.02-29.45 87.21-28.61Q90.44-28.8 94.28-28.8L94.28-28.8Q98.12-28.8 105.34-28.65L105.34-28.65Q109.4-28.39 109.4-23.29L109.4-23.29Q109.4-20.03 108.79-14.29L108.79-14.29Q104.12-14.17 98.72-14.1L98.72-14.1Q98.72-13 98.76-12.46L98.76-12.46 110.62-12.62 111.11-8.7Q109.55-8.66 98.91-8.55L98.91-8.55 98.95-6.92Q104.99-7.07 108.91-7.14L108.91-7.14 109.4-3.12Q107.62-3.04 98.99-2.96L98.99-2.96 98.99-1.33Q109.17-1.56 111.8-1.6L111.8-1.6 112.06 2.24Q110.05 2.32 78.89 2.93L78.89 2.93 78.58-0.95Q84.09-0.99 92.83-1.22L92.83-1.22Q92.87-2.13 92.91-2.89L92.91-2.89 82.65-2.7 82.54-6.08 77.98-7.56Q81.7-10.98 82.35-13.95ZM92.95-13.98L92.95-13.98Q87.02-13.95 82.88-13.95L82.88-13.95 87.7-13.26Q87.55-12.5 87.32-12.27L87.32-12.27 93.02-12.35Q92.99-12.96 92.95-13.98ZM126.84-7.41L126.84-7.41 126.96-1.82Q122.78-0.42 116.05 0.19L116.05 0.19 115.6-5.05Q117.23-5.13 118.83-5.36L118.83-5.36Q119.09-7.68 119.13-12.39L119.13-12.39 115.79-12.24 115.67-17.71Q116.2-17.71 119.13-17.9L119.13-17.9Q119.09-19.68 118.94-23.14L118.94-23.14Q117.69-23.07 115.44-22.95L115.44-22.95 115.41-28.42Q115.94-28.42 117.36-28.5 118.79-28.58 121.35-28.73 123.92-28.88 126.96-29.11L126.96-29.11 127.3-23.48Q125.51-23.45 124.34-23.33L124.34-23.33 124.45-18.24 126.81-18.39 127.11-12.88 124.53-12.77 124.53-6.42Q125.74-6.88 126.84-7.41ZM135.17-12.88L130.99-10.68Q130.26-13.6 128.02-16.72L128.02-16.72 131.94-18.66Q133.76-16.45 135.17-12.88L135.17-12.88ZM128.78-2.05L127.22-7.52Q131.1-8.47 136.19-11.51L136.19-11.51 136.19-11.74Q136.19-14.86 136.19-19.46L136.19-19.46 128.06-19.23 127.98-24.74Q131.1-24.78 136.12-24.89L136.12-24.89Q136.04-27.28 136-29.41L136-29.41 141.25-29.68Q141.36-27.28 141.47-25.08L141.47-25.08 144.25-25.16Q143.6-26.98 142.31-28.61L142.31-28.61 146.41-29.83Q148.09-28.42 149.19-26.07L149.19-26.07 146.07-25.23Q147.78-25.23 150.29-25.35L150.29-25.35 150.63-19.8Q149.11-19.76 141.7-19.57L141.7-19.57Q141.78-16.19 141.82-13.64L141.82-13.64 142.8-12.58Q144.29-15.2 144.86-18.96L144.86-18.96 149.23-18.01Q148.96-14.4 147.4-11.13L147.4-11.13 143.53-11.89Q148.69-7.07 150.67-2.89L150.67-2.89 145.77-0.49Q144.4-3.04 141.82-6.08L141.82-6.08Q141.74-2.62 141.4-0.68L141.4-0.68Q141.17 0.84 140.22 1.75L140.22 1.75Q138.85 2.93 135.7 2.93L135.7 2.93Q134.82 2.93 133.27 2.58L133.27 2.58 132.7-3.04Q133.68-2.81 134.48-2.81L134.48-2.81Q134.9-2.81 135.28-2.89L135.28-2.89Q136.15-3.19 136.19-5.74L136.19-5.74Q133.11-3.31 128.78-2.05L128.78-2.05Z" transform="translate(-1.3300000429153442, 29.829999923706055)"></path></g> <!----> <!----> <!----> <!----> <!----> <!----> <!----></g></g> <g data-gra="path-slogan" fill-rule="" class="tp-slogan iconsvg-slogansvg" fill="#c24822" transform="translate(27.179996490478516,38.7599983215332)"><!----> <!----> <g transform="scale(1, 1)"><g transform="scale(1)"><path d="M2.02-0.95L6.75-0.95L6.75 0L0.95 0L0.95-7.86L6.66-7.86L6.66-6.96L2.02-6.96L2.02-4.51L6.32-4.51L6.32-3.57L2.02-3.57L2.02-0.95ZM15.32 0L14.55-2.28L11.37-2.28L10.55 0L9.48 0L12.44-7.86L13.64-7.86L16.48 0L15.32 0ZM12.96-6.70L11.71-3.22L14.16-3.22L13-6.70L12.96-6.70ZM23.21-3.39L20.63-3.39L20.63 0L19.55 0L19.55-7.86L23.21-7.86Q25.83-7.86 25.83-5.76L25.83-5.76Q25.83-4.47 24.71-3.87L24.71-3.87Q25.66-3.61 25.66-2.36L25.66-2.36L25.74-0.95Q25.70-0.34 26.13-0.17L26.13-0.17L26.13 0L24.80 0Q24.67-0.56 24.63-1.98L24.63-1.98Q24.67-3.39 23.21-3.39L23.21-3.39ZM23.29-7.00L20.63-7.00L20.63-4.30L23.12-4.30Q24.71-4.30 24.71-5.67L24.71-5.67Q24.71-7.00 23.29-7.00L23.29-7.00ZM30.62-7.86L34.57-1.50L34.57-7.86L35.61-7.86L35.61 0L34.40 0L30.41-6.36L30.36-6.36L30.36 0L29.33 0L29.33-7.86L30.62-7.86ZM47.64-7.00L45.49-7.00L45.49-4.25L47.60-4.25Q49.23-4.25 49.23-5.67L49.23-5.67Q49.23-6.96 47.64-7.00L47.64-7.00ZM47.98-3.31L45.49-3.31L45.49 0L44.42 0L44.42-7.86L47.98-7.86Q50.22-7.78 50.30-5.67L50.30-5.67Q50.18-3.39 47.98-3.31L47.98-3.31ZM53.59-7.86L54.67-7.86L54.67-0.95L58.66-0.95L58.66 0L53.59 0L53.59-7.86ZM66.89 0L66.12-2.28L62.94-2.28L62.13 0L61.05 0L64.02-7.86L65.22-7.86L68.05 0L66.89 0ZM64.53-6.70L63.29-3.22L65.73-3.22L64.57-6.70L64.53-6.70ZM72.29-7.86L76.24-1.50L76.24-7.86L77.27-7.86L77.27 0L76.07 0L72.07-6.36L72.03-6.36L72.03 0L71 0L71-7.86L72.29-7.86ZM82.11-0.95L86.84-0.95L86.84 0L81.04 0L81.04-7.86L86.75-7.86L86.75-6.96L82.11-6.96L82.11-4.51L86.41-4.51L86.41-3.57L82.11-3.57L82.11-0.95ZM92.23-6.96L89.57-6.96L89.57-7.86L95.93-7.86L95.93-6.96L93.26-6.96L93.26 0L92.23 0L92.23-6.96Z" transform="translate(-0.9453125, 7.86328125)"></path></g></g></g></g></g><defs v-gra="od"></defs></svg>
