<svg data-v-0dd9719b="" version="1.0" xmlns="http://www.w3.org/2000/svg" xmlns:xlink="http://www.w3.org/1999/xlink" width="100%" height="100%" viewBox="0 0 340.000000 250.000000" preserveAspectRatio="xMidYMid meet" color-interpolation-filters="sRGB" style="margin: auto;"> <rect data-v-0dd9719b="" x="0" y="0" width="100%" height="100%" fill="#ffffff" fill-opacity="1" class="background"></rect> <rect data-v-0dd9719b="" x="0" y="0" width="100%" height="100%" fill="url(#watermark)" fill-opacity="1" class="watermarklayer"></rect> <g data-v-0dd9719b="" fill="#505e86" class="icon-text-wrapper icon-svg-group iconsvg" transform="translate(57.68000030517578,12.680000305175781)"><g fill="#505e86" class="iconsvg-imagesvg icon_container" transform="translate(0,0)"><rect fill="#505e86" fill-opacity="0" stroke-width="2" x="0" y="0" width="224.6400000000001" height="224.6400000000001" class="image-rect"></rect> <svg viewBox="0 0 60 60" x="0" y="0" width="224.6400000000001" height="224.6400000000001" class="image-svg-svg bn" style="overflow: visible;"><g hollow-target=""><g><svg viewBox="0 0 100 100" xmlns="http://www.w3.org/2000/svg" style="overflow: visible;" width="60" height="60" x="0" y="0" filtersec="colorsf451818442" filter="url(#AuvUfd4h26Pvy91F3O-xZ)"><g transform="scale(1, 1) skewX(0)"><path d="M80 0c11.046 0 20 8.954 20 20v60c0 11.046-8.954 20-20 20H20C8.954 100 0 91.046 0 80V20C0 8.954 8.954 0 20 0h60zm0 3H20C10.72 3 3.175 10.437 3.003 19.677L3 20v60c0 9.28 7.437 16.825 16.677 16.997L20 97h60c9.28 0 16.825-7.437 16.997-16.677L97 80V20c0-9.28-7.437-16.825-16.677-16.997L80 3z" fill="#333" fill-rule="nonzero"></path></g><defs><filter id="AuvUfd4h26Pvy91F3O-xZ"><feColorMatrix type="matrix" values="0 0 0 0 0.3125  0 0 0 0 0.3671875  0 0 0 0 0.5234375  0 0 0 1 0"></feColorMatrix></filter></defs></svg></g> <g filter="url(#colors5059369149)"><svg xmlns="http://www.w3.org/2000/svg" xmlns:xlink="http://www.w3.org/1999/xlink" viewBox="0 0 66.96000000000001 61.41600000000001" width="39.6" height="39.6" x="10.2" y="10.2" class="image-svg-letter"><path transform="translate(-2.5200000000000005 55.87200000000001)" d="M57.53-19.94L57.53-16.20L59.69-16.27Q59.90-17.06 59.90-20.02L59.90-20.02L57.53-19.94ZM46.80-30.74L46.80-27.94L49.97-28.01L49.90-30.82L46.80-30.74ZM57.46-30.96L57.46-28.37L60.05-28.44Q60.05-30.96 58.68-30.96L58.68-30.96L57.46-30.96ZM46.87-19.73L46.87-15.91L49.90-15.98L49.90-19.80L46.87-19.73ZM57.53-4.18L57.53 5.40L49.61 5.54L49.82-8.14L46.87-8.14L46.80 5.18L38.81 5.26L38.95-1.94Q37.15 1.66 34.27 4.46L34.27 4.46L29.09-2.09Q32.26-4.54 34.70-8.06L34.70-8.06L32.26-8.06L32.04-15.84L39.24-15.77L39.24-19.51L30.10-19.30L29.88-27.50Q34.92-27.50 39.31-27.72L39.31-27.72L39.24-30.60L32.76-30.46L32.54-38.30L39.24-38.52L39.24-41.54L30.38-41.26L30.10-49.75L38.16-49.82Q37.66-51.05 35.50-53.71L35.50-53.71L43.56-55.87Q46.01-53.64 47.16-50.90L47.16-50.90L45.07-50.04L51.26-50.26Q52.99-52.99 54.29-55.58L54.29-55.58L62.57-53.50Q61.92-51.84 60.77-50.47L60.77-50.47Q65.30-50.54 68.47-50.62L68.47-50.62L68.33-42.26Q62.64-42.12 57.31-41.98L57.31-41.98L57.31-38.88L58.46-38.88Q60.91-38.88 62.78-38.63Q64.66-38.38 65.77-36.90Q66.89-35.42 67.10-32.90L67.10-32.90Q67.39-31.32 67.39-28.58L67.39-28.58L69.19-28.66L69.48-20.38L67.18-20.23Q66.89-13.90 66.24-8.35L66.24-8.35L64.01-8.28Q66.38-3.53 68.98 1.87L68.98 1.87L61.34 5.11Q60.26 1.22 57.53-4.18L57.53-4.18ZM46.58-41.69L46.66-38.59L49.90-38.66L49.90-41.76L46.58-41.69ZM29.59-2.95L23.33 3.24Q20.66-1.15 16.85-5.11L16.85-5.11L21.31-12.24Q26.86-7.56 29.59-2.95L29.59-2.95ZM9.29 5.54L9.29 5.54L2.52-0.07Q8.21-5.26 11.02-14.33L11.02-14.33L4.10-14.26Q4.46-23.18 4.46-33.98L4.46-33.98L4.32-55.44L11.38-55.80L11.38-54.50Q16.92-54.94 24.48-54.94L24.48-54.94Q28.51-54.58 28.87-49.82L28.87-49.82Q29.02-39.02 29.02-32.90L29.02-32.90Q29.02-22.90 28.58-13.68L28.58-13.68L21.24-14.40Q21.96-26.35 21.96-35.50L21.96-35.50Q21.96-38.81 21.82-43.49L21.82-43.49Q21.67-45.14 20.30-45.14L20.30-45.14Q18.65-45.14 11.45-44.57L11.45-44.57Q11.52-30.60 11.52-16.06L11.52-16.06Q13.75-24.19 13.75-33.70L13.75-33.70L13.61-41.11L20.16-41.47L20.16-39.96Q20.45-35.93 20.45-33.55L20.45-33.55Q20.45-4.61 9.29 5.54Z"></path></svg></g></g></svg> <defs><filter id="colors5059369149"><feColorMatrix type="matrix" values="0 0 0 0 0.3125  0 0 0 0 0.3671875  0 0 0 0 0.5234375  0 0 0 1 0" class="icon-fecolormatrix"></feColorMatrix></filter> <filter id="colorsf451818442"><feColorMatrix type="matrix" values="0 0 0 0 0.99609375  0 0 0 0 0.99609375  0 0 0 0 0.99609375  0 0 0 1 0" class="icon-fecolormatrix"></feColorMatrix></filter> <filter id="colorsb1287324032"><feColorMatrix type="matrix" values="0 0 0 0 0  0 0 0 0 0  0 0 0 0 0  0 0 0 1 0" class="icon-fecolormatrix"></feColorMatrix></filter></defs></g> <g transform="translate(112.31999969482422,230.63999938964844)"><g data-gra="path-name" fill-rule="" class="tp-name iconsvg-namesvg"><g transform="scale(1)"><g><path d="" transform="translate(0, 0)"></path></g> <!----> <!----> <!----> <!----> <!----> <!----> <!----></g></g> <!----></g></g><defs v-gra="od"></defs></svg>
